<svg width="227" height="202" viewBox="0 0 227 202" fill="none" xmlns="http://www.w3.org/2000/svg">
<path d="M208.131 118.88L226.761 36.8173C228.106 30.8922 223.607 25.25 217.538 25.25H62.7434L59.1311 7.57105C58.231 3.16454 54.3578 0 49.8647 0H9.45833C4.23457 0 0 4.23924 0 9.46875V15.7812C0 21.0108 4.23457 25.25 9.45833 25.25H36.999L64.6836 160.746C58.0604 164.559 53.5972 171.709 53.5972 179.906C53.5972 192.108 63.478 202 75.6667 202C87.8553 202 97.7361 192.108 97.7361 179.906C97.7361 173.722 95.1954 168.135 91.1058 164.125H173.727C169.638 168.135 167.097 173.722 167.097 179.906C167.097 192.108 176.978 202 189.167 202C201.355 202 211.236 192.108 211.236 179.906C211.236 171.159 206.157 163.599 198.791 160.02L200.965 150.442C202.31 144.517 197.812 138.875 191.742 138.875H85.9593L83.3799 126.25H198.908C203.324 126.25 207.152 123.191 208.131 118.88Z" fill="#324B4A"/>
</svg>
